<?xml version="1.0" standalone="no"?>
<!DOCTYPE svg PUBLIC "-//W3C//DTD SVG 20010904//EN"
 "http://www.w3.org/TR/2001/REC-SVG-20010904/DTD/svg10.dtd">
<svg version="1.0" xmlns="http://www.w3.org/2000/svg"
 width="200.000000pt" height="200.000000pt" viewBox="0 0 200.000000 200.000000"
 preserveAspectRatio="xMidYMid meet">
<metadata>
Created by potrace 1.11, written by Peter Selinger 2001-2013
</metadata>
<g transform="translate(0.000000,200.000000) scale(0.100000,-0.100000)"
fill="#000000" stroke="none">
<path d="M102 1201 l3 -606 898 -1 897 -1 -2 606 -3 606 -898 1 -897 1 2 -606z"/>
<path d="M1261 470 c2 -34 7 -50 16 -50 7 0 14 10 14 23 1 12 2 34 3 50 2 20
-3 27 -17 27 -15 0 -18 -7 -16 -50z"/>
<path d="M629 498 c-1 -2 -3 -49 -3 -105 -1 -56 -6 -106 -10 -110 -9 -10 -26
17 -20 32 3 6 -2 18 -11 25 -17 14 -16 15 -20 -27 -3 -51 42 -78 77 -46 15 14
18 34 18 125 0 89 -3 108 -15 108 -8 0 -16 -1 -16 -2z"/>
<path d="M710 436 c-15 -19 -20 -113 -8 -148 5 -14 16 -29 24 -32 20 -8 60 9
68 29 10 26 7 124 -4 146 -13 23 -62 26 -80 5z m55 -86 c-1 -33 -4 -62 -7 -66
-16 -15 -28 12 -28 61 0 66 8 89 25 75 7 -6 11 -33 10 -70z"/>
<path d="M833 356 c0 -85 8 -113 29 -100 4 3 8 41 8 84 0 43 4 81 9 84 18 12
28 -21 26 -86 -2 -70 1 -81 23 -86 10 -2 12 20 10 95 l-3 98 -51 1 -51 2 0
-92z"/>
<path d="M979 429 c0 -11 -1 -44 -1 -74 0 -95 1 -102 17 -102 16 0 16 5 19 97
0 30 5 61 9 68 18 27 27 -2 27 -83 0 -73 2 -83 17 -81 15 2 18 15 19 82 1 104
-5 113 -61 112 -37 0 -45 -4 -46 -19z"/>
<path d="M1110 438 c0 -7 9 -47 20 -88 25 -96 25 -117 -1 -131 -26 -13 -12
-31 18 -23 22 6 41 45 48 101 2 16 10 56 18 91 15 59 14 62 -3 62 -15 0 -20
-11 -26 -47 -5 -27 -7 -51 -6 -55 1 -5 -2 -8 -7 -8 -5 0 -13 24 -18 52 -6 38
-13 54 -26 56 -9 2 -17 -2 -17 -10z"/>
<path d="M1351 441 c-23 -15 -15 -58 18 -98 30 -37 40 -63 22 -63 -13 0 -32
26 -24 33 3 4 -1 7 -9 7 -23 0 -29 -24 -13 -48 14 -19 50 -23 74 -7 20 12 11
57 -20 96 -18 23 -29 46 -25 55 7 18 26 9 26 -12 0 -8 7 -14 15 -14 18 0 20
31 3 48 -14 14 -47 15 -67 3z"/>
</g>
</svg>
